<svg xmlns="http://www.w3.org/2000/svg" width="182.874" height="60" viewBox="0 0 182.874 60">
  <g id="lOGO" transform="translate(-147.376 -32)">
    <g id="Group_1" data-name="Group 1" transform="translate(224.25 40.077)">
      <text id="SUCKHOE" transform="translate(0 20)" fill="#0090ff" font-size="21" font-family="Helvetica Neue" font-weight="700"><tspan x="0" y="0">SUCKHOE</tspan></text>
      <text id="VIETNAM" transform="translate(0 39.231)" fill="#6b6b6b" font-size="16" font-family="Helvetica Neue"><tspan x="0" y="0">VIETNAM</tspan></text>
    </g>
    <g id="Group_3" data-name="Group 3" transform="translate(147.376 32)">
      <g id="Group_2" data-name="Group 2" transform="translate(0 0)">
        <path id="Path_1" data-name="Path 1" d="M19.762,21.526c1.937-.923,2.569-3.638,1.418-6.05s-3.66-3.638-5.6-2.715S13.014,16.4,14.167,18.82,17.827,22.453,19.762,21.526Z" transform="translate(13.862 10.829)" fill="#0090ff"/>
        <path id="Path_2" data-name="Path 2" d="M32.029,9.8c1.862,11.657-6.433,20.4-6.433,20.4S18.756,18.619,7.255,15.127c22.373,16.359,9.639,36.755,9.639,36.755H23.37S38.425,25.9,32.029,9.8Z" transform="translate(7.4 8.119)" fill="#0090ff"/>
        <path id="Path_3" data-name="Path 3" d="M14.387,12.477c-.125-.186-.252-.384-.38-.6A9.731,9.731,0,0,1,13.145,9.9a10.239,10.239,0,0,1,1.275,1.731c.123.216.23.428.329.63a3.5,3.5,0,0,0-.271-2.311,3.729,3.729,0,0,0-2.155-1.481,3.731,3.731,0,0,0,.2,2.61A3.475,3.475,0,0,0,14.387,12.477Z" transform="translate(12.415 6.769)" fill="#0090ff"/>
        <path id="Path_4" data-name="Path 4" d="M20.622,15.376a3.489,3.489,0,0,0,2.135.917,3.719,3.719,0,0,0,2.359-1.129,3.714,3.714,0,0,0-2.359-1.127,3.489,3.489,0,0,0-2.135.917c.224-.016.459-.028.711-.028a10.107,10.107,0,0,1,2.143.234,9.874,9.874,0,0,1-2.143.236A6.22,6.22,0,0,1,20.622,15.376Z" transform="translate(21.033 12.444)" fill="#0090ff"/>
        <path id="Path_5" data-name="Path 5" d="M18.483,11.636A9.836,9.836,0,0,1,19.758,9.9a9.789,9.789,0,0,1-.865,1.975c-.125.214-.252.416-.382.6a3.471,3.471,0,0,0,1.862-1.39,3.747,3.747,0,0,0,.21-2.614,3.756,3.756,0,0,0-2.157,1.483,3.482,3.482,0,0,0-.273,2.311A6.813,6.813,0,0,1,18.483,11.636Z" transform="translate(18.433 6.771)" fill="#0090ff"/>
        <path id="Path_6" data-name="Path 6" d="M16.518,11.247a22,22,0,0,1,.527-4.755,21.97,21.97,0,0,1,.529,4.755c0,.555-.026,1.081-.067,1.578a7.734,7.734,0,0,0,2.042-4.751c0-2.9-2.5-5.25-2.5-5.25s-2.5,2.349-2.5,5.25a7.75,7.75,0,0,0,2.04,4.751C16.544,12.328,16.518,11.8,16.518,11.247Z" transform="translate(14.83 1.008)" fill="#0090ff"/>
        <path id="Path_7" data-name="Path 7" d="M8.878,13.673a7.738,7.738,0,0,0,5.135.606c-.448-.21-.919-.457-1.4-.731a21.939,21.939,0,0,1-3.854-2.832,21.955,21.955,0,0,1,4.381,1.919c.481.279.923.562,1.335.846a7.7,7.7,0,0,0-3.093-4.145c-2.509-1.452-5.8-.459-5.8-.459S6.368,12.225,8.878,13.673Z" transform="translate(5.699 6.844)" fill="#0090ff"/>
        <path id="Path_8" data-name="Path 8" d="M27.167,18.5a7.746,7.746,0,0,0-5.133-.608c.45.212.919.459,1.4.733a22.154,22.154,0,0,1,3.854,2.832,21.913,21.913,0,0,1-4.383-1.917c-.481-.281-.923-.564-1.333-.848a7.7,7.7,0,0,0,3.088,4.143c2.509,1.452,5.8.459,5.8.459S29.676,19.953,27.167,18.5Z" transform="translate(22.002 16.198)" fill="#0090ff"/>
        <path id="Path_9" data-name="Path 9" d="M14.477,18.7c-.412.281-.852.564-1.333.844A22.316,22.316,0,0,1,8.76,21.468a21.951,21.951,0,0,1,3.854-2.836c.483-.281.951-.517,1.4-.733a7.7,7.7,0,0,0-5.135.608C6.369,19.955,5.585,23.3,5.585,23.3s3.288.994,5.8-.454A7.721,7.721,0,0,0,14.477,18.7Z" transform="translate(5.696 16.197)" fill="#0090ff"/>
        <path id="Path_10" data-name="Path 10" d="M21.573,13.474c.41-.281.852-.564,1.337-.842a21.913,21.913,0,0,1,4.379-1.919,21.844,21.844,0,0,1-3.854,2.832c-.481.279-.951.521-1.4.731a7.682,7.682,0,0,0,5.129-.606c2.513-1.45,3.295-4.8,3.295-4.8s-3.286-.992-5.8.459A7.688,7.688,0,0,0,21.573,13.474Z" transform="translate(22.003 6.842)" fill="#0090ff"/>
        <path id="Path_11" data-name="Path 11" d="M14.277,12.849c-.376-.551-.757-1.145-1.131-1.792a29.381,29.381,0,0,1-2.575-5.874,29.351,29.351,0,0,1,3.8,5.171c.374.642.695,1.271.982,1.874a10.333,10.333,0,0,0-.81-6.88C12.6,1.981,8.115.931,8.115.931S6.783,5.338,8.727,8.7A10.369,10.369,0,0,0,14.277,12.849Z" transform="translate(7.823 -0.923)" fill="#0090ff"/>
        <path id="Path_12" data-name="Path 12" d="M21.285,22.361c.376.551.762,1.143,1.133,1.788a29.543,29.543,0,0,1,2.575,5.878,29.6,29.6,0,0,1-3.8-5.169c-.372-.646-.695-1.275-.982-1.874a10.375,10.375,0,0,0,.812,6.876c1.945,3.365,6.427,4.42,6.427,4.42s1.337-4.412-.608-7.777A10.373,10.373,0,0,0,21.285,22.361Z" transform="translate(20.366 20.934)" fill="#0090ff"/>
        <path id="Path_13" data-name="Path 13" d="M11.287,17a29.363,29.363,0,0,1-6.375-.711,29.363,29.363,0,0,1,6.375-.711c.747,0,1.452.04,2.117.089a10.35,10.35,0,0,0-6.369-2.739C3.151,12.933,0,16.292,0,16.292s3.153,3.361,7.035,3.359A10.36,10.36,0,0,0,13.4,16.916C12.738,16.967,12.031,17,11.287,17Z" transform="translate(0 11.316)" fill="#0090ff"/>
        <path id="Path_14" data-name="Path 14" d="M31.292,12.935a10.337,10.337,0,0,0-6.367,2.735c.667-.05,1.374-.089,2.115-.087a29.419,29.419,0,0,1,6.375.709A29.325,29.325,0,0,1,27.044,17c-.745,0-1.452-.038-2.119-.087a10.365,10.365,0,0,0,6.367,2.735c3.886,0,7.033-3.355,7.033-3.355S35.174,12.931,31.292,12.935Z" transform="translate(25.422 11.32)" fill="#0090ff"/>
        <path id="Path_15" data-name="Path 15" d="M14.374,24.861a29.539,29.539,0,0,1-3.8,5.169,29.381,29.381,0,0,1,2.573-5.878c.376-.642.757-1.234,1.135-1.792a10.367,10.367,0,0,0-5.555,4.147c-1.945,3.365-.612,7.777-.612,7.777s4.486-1.05,6.429-4.416a10.341,10.341,0,0,0,.814-6.88C15.065,23.586,14.743,24.208,14.374,24.861Z" transform="translate(7.821 20.933)" fill="#0090ff"/>
        <path id="Path_16" data-name="Path 16" d="M21.194,10.352a29.408,29.408,0,0,1,3.8-5.167,29.3,29.3,0,0,1-2.575,5.874c-.372.64-.753,1.238-1.129,1.79A10.35,10.35,0,0,0,26.84,8.706c1.945-3.365.612-7.779.612-7.779s-4.482,1.052-6.427,4.418a10.318,10.318,0,0,0-.816,6.88C20.5,11.629,20.818,11,21.194,10.352Z" transform="translate(20.362 -0.927)" fill="#0090ff"/>
      </g>
    </g>
  </g>
</svg>
